M48
METRIC,LZ,0000.00
;FILE_FORMAT=4:2
;TYPE=PLATED
;Layer: Drill PTH
;EasyEDA v6.4.12, 2021-01-01T09:56:31+01:00
;894a5beaafa14ce6bfb9057d1c18a6f7,8f8135e26d124d33b536985ae94b05e9,10
;Gerber Generator version 0.2
;Holesize 1 = 0.310 mm
T01C0.310
;Holesize 2 = 0.915 mm
T02C0.915
;Holesize 3 = 1.016 mm
T03C1.016
;Holesize 4 = 1.270 mm
T04C1.270
;Holesize 5 = 1.403 mm
T05C1.403
%
G05
G90
T01
X006423Y003857
T02
X005906Y000990
X006160Y000990
X006414Y000990
X006668Y000990
X006922Y000990
X007176Y000990
X007430Y000990
X007684Y000990
X007938Y000990
X008191Y000990
X008446Y000990
X008700Y000990
X008954Y000990
X009208Y000990
X009462Y000990
X005906Y002514
X006160Y002514
X006414Y002514
X006668Y002514
X006922Y002514
X007176Y002514
X007430Y002514
X007684Y002514
X007938Y002514
X008191Y002514
X008446Y002514
X008700Y002514
X008954Y002514
X009208Y002514
X009462Y002514
T03
X004826Y002920
X004572Y002920
X004318Y002920
X004064Y002920
X003810Y002920
T04
X003299Y004211
X003299Y002671
X000359Y003690
X000359Y003191
T05
X001745Y001091
X002446Y001091
M30
